<svg width="53" height="52" viewBox="0 0 53 52" fill="none" xmlns="http://www.w3.org/2000/svg">
<path d="M12.6625 32.0259L13.5327 32.5186L12.6625 32.0259C12.5257 32.2676 12.4606 32.5313 12.4092 32.7396C12.4045 32.7585 12.4 32.777 12.3955 32.7949L10.5653 40.1157C10.5625 40.1269 10.5596 40.1385 10.5565 40.1505C10.5197 40.297 10.4687 40.4999 10.4511 40.6795C10.4309 40.8862 10.4242 41.3382 10.793 41.707L11.5001 40.9999L10.793 41.707C11.1618 42.0757 11.6138 42.0691 11.8205 42.0488C12.0001 42.0313 12.2029 41.9803 12.3494 41.9434C12.3614 41.9404 12.3731 41.9375 12.3843 41.9347L19.7051 40.1045C19.723 40.1 19.7415 40.0955 19.7604 40.0908C19.9687 40.0394 20.2324 39.9743 20.4741 39.8374L19.9814 38.9672L20.4741 39.8374C20.7159 39.7006 20.9073 39.508 21.0586 39.3558C21.0723 39.342 21.0857 39.3285 21.0988 39.3154L20.3917 38.6083L21.0988 39.3154L21.0988 39.3154L38.7929 21.6213L38.8313 21.5829C39.1313 21.2831 39.4227 20.9917 39.6308 20.719C39.8653 20.4116 40.0858 20.0137 40.0858 19.5C40.0858 18.9863 39.8653 18.5884 39.6308 18.281C39.4227 18.0083 39.1313 17.7169 38.8313 17.4171L38.7929 17.3787L35.1213 13.7071L35.0828 13.6686C34.783 13.3687 34.4917 13.0772 34.219 12.8692C33.9116 12.6347 33.5136 12.4142 33 12.4142C32.4863 12.4142 32.0884 12.6347 31.781 12.8692C31.5083 13.0772 31.2169 13.3687 30.9171 13.6686C30.9043 13.6814 30.8915 13.6943 30.8787 13.7071L31.5763 14.4048L30.8787 13.7071L13.1846 31.4012C13.1715 31.4143 13.158 31.4277 13.1442 31.4414C12.992 31.5926 12.7994 31.7841 12.6625 32.0259Z" stroke="#FE554A" stroke-width="2"/>
</svg>
